<?xml version="1.0" encoding="utf-8"?>
<!-- Generator: Adobe Illustrator 26.1.0, SVG Export Plug-In . SVG Version: 6.00 Build 0)  -->
<svg version="1.1" id="Layer_1" xmlns="http://www.w3.org/2000/svg" xmlns:xlink="http://www.w3.org/1999/xlink" x="0px" y="0px"
	 viewBox="0 0 1920 1080" style="enable-background:new 0 0 1920 1080;" xml:space="preserve">
<path d="M0,0v1080h1920V0H0z M634,330.4c8.3-9.5,18.4-17.1,29.7-22.4c10.5-5.4,22-8.8,33.7-9.5c0.7,15,0,38.3-23.4,67.9
	c-5.4,6.4-11.2,12-17.1,16.8c-14.3,11.6-30.6,16.6-47.3,15c-0.3-2.7-0.5-5.2-0.4-7.9C609.4,369.8,619.5,347,634,330.4z M777.7,635
	c-8.1,18.5-17.5,34-26.2,46.4c-8.6,12.2-23.5,31-30,36.5c-9,7.5-20,11.2-30.9,11.5c-12.1,0-21.5-2.5-34.3-8.3
	c-11.6-5.2-24.2-8.7-36.9-9c-13,0.2-26.3,3.7-38.4,9c-12.9,5.6-21.5,8.5-32.4,8.8c-12.6,0.4-25.3-5.2-37.9-17.3
	c-8.1-7.2-18.1-19.7-30.2-37.2c-13.6-20.2-24.4-42.1-32-65.2c-9-26.7-13.5-52.6-13.5-77.7c0-14.5,1.5-28,4.6-40.5
	c3-12.2,8.2-23.5,14.1-33.8c19.5-34.9,56.2-53.8,88.6-54.2c12.6,0,23.4,2.8,39.7,9.2c9.2,3.5,16.9,6.3,22.7,8
	c8.3,2.4,10.9,2.8,23.4-1.6c5.4-1.9,12.3-4.6,20.8-8c15.6-6.1,29.4-8.9,41.2-8.9h0.7c1.7,0,3.3,0.1,5,0.2
	c35.1,2.9,60.4,17.1,78,42.8c-9.4,5.8-16.5,12.1-22,18.3c-9.8,11.1-23.8,31.3-23.5,62.2c0.3,24.2,10,51.5,29,69.6
	c8.4,8.2,17.4,13.9,27.8,18.6C783,621.1,780.3,628.6,777.7,635z M1185.6,723.8h-53.4l0.2-186.9l1.3-31.6h-3.7
	c-18.9,45.1-34.8,82.9-48.1,114.1c-21.3,50.2-35.7,83.1-44.2,101.7h-38.3l-80.4-190.2l-9.7-25.6H906l0.6,25.7l-0.2,192.9h-53.6
	V409.5l68.6,0.4c32.7,77.4,65.2,153.8,97.7,231.3h1.3c32.1-77.6,64-154.5,97.1-231.6h68.5L1185.6,723.8z M1473.1,619.5
	c0,22-5.3,42-15.4,58.5c-10.1,16.5-24,29.3-42,38.6c-17.8,9.2-39.4,14-63.1,14c-22.3,0-42-3.9-59-12c-16.9-8.1-30.7-19.1-40.7-33
	c-9.9-14-15.3-29.9-16.7-47.6l-0.2-2.9h54.4l0.2,1.6c4.6,25.2,28.3,45.5,63,45.5c33.9,0,63.6-21.7,63.6-61.5v-0.4
	c0-34.8-26.5-60.9-63.7-60.9c-7,0-16.3,0.8-26.1,4.2c-22.8,7.9-32.9,24.8-33.7,26.2h-52.5l15.9-179.5h197.5l-0.3,48.3l-151.1,0.2
	l-7.6,89.9h1.3c4.7-7.2,10.1-13.4,17.2-18.4c7.2-5,14.8-8.9,23.9-11.5c9.3-2.8,19.3-4.2,29.9-4.2c20.4,0,39.3,4.7,54.8,13.5
	c15.6,8.9,27.7,21,36.6,36.5c8.9,15.4,13.7,35.6,13.7,54.6V619.5z"/>
</svg>
